<?xml version="1.0" encoding="UTF-8"?>
<svg version="1.1" xmlns="http://www.w3.org/2000/svg" width="1024" height="1024">
  <defs>
    <clipPath id="rounded-corners">
      <rect width="1024" height="1024" rx="250" ry="250"/>
    </clipPath>
  </defs>

  <g clip-path="url(#rounded-corners)">
    <path d="M0 0 C337.92 0 675.84 0 1024 0 C1024 337.92 1024 675.84 1024 1024 C686.08 1024 348.16 1024 0 1024 C0 686.08 0 348.16 0 0 Z " fill="#0679B8" transform="translate(0,0)"/>
    
    <path d="M0 0 C209.94554031 0 209.94554031 0 255 29 C255.88921143 29.57137695 255.88921143 29.57137695 256.79638672 30.15429688 C270.37753842 39.04324016 282.26696608 49.99651001 292 63 C292.88365234 64.16015625 292.88365234 64.16015625 293.78515625 65.34375 C319.74951816 100.83034942 327.18846695 144.36208173 327.18530273 187.35424805 C327.18748367 190.66272971 327.20567881 193.97087413 327.22460938 197.27929688 C327.27044628 214.06613925 326.09623311 230.15577916 322.6875 246.625 C322.46803711 247.69202148 322.24857422 248.75904297 322.02246094 249.85839844 C313.33018688 290.95706191 291.73218278 328.05960212 256.32250977 351.52587891 C231.20178483 367.56897557 204.31155091 375.06538123 175.06787109 378.69384766 C173.81055176 378.85030762 172.55323242 379.00676758 171.2578125 379.16796875 C170.1248877 379.30485107 168.99196289 379.4417334 167.82470703 379.58276367 C164.93008227 379.92652372 164.93008227 379.92652372 162 381 C108.54 381 55.08 381 0 381 C0 255.27 0 129.54 0 0 Z " fill="#FEFEFE" transform="translate(532,337)"/>
    
    <path d="M0 0 C209.21304171 0 209.21304171 0 245.9296875 35.77734375 C262.97849733 53.17180943 271.16948722 76.42164094 275 100 C275.185625 100.91394531 275.37125 101.82789063 275.5625 102.76953125 C277.68139929 118.41533225 276.03912248 134.59816145 273 150 C272.7834375 151.11503906 272.566875 152.23007812 272.34375 153.37890625 C266.48623234 179.56340485 250.83448102 203.00314624 228.48046875 217.8359375 C201.98343821 234.53846285 172.814184 239.1862105 141.9921875 239.09765625 C140.27482129 239.09618338 138.55745464 239.0951648 136.84008789 239.09460449 C130.51838502 239.08939159 124.1966918 239.07543037 117.875 239.0625 C103.72625 239.041875 89.5775 239.02125 75 239 C75 285.86 75 332.72 75 381 C50.25 381 25.5 381 0 381 C0 255.27 0 129.54 0 0 Z " fill="#FEFEFE" transform="translate(184,337)"/>
    
    <path d="M0 0 C114.1101626 0 114.1101626 0 144.375 28.8125 C168.20512622 54.18387817 174.80195793 89.14819345 174.46655273 122.88891602 C174.43747577 126.06514684 174.44603779 129.23970657 174.45898438 132.41601562 C174.442372 150.07795328 173.33786241 167.97521113 167.8125 184.875 C167.51279297 185.82133301 167.21308594 186.76766602 166.90429688 187.74267578 C162.868162 200.0237604 157.52696592 211.17914124 149 221 C148.236875 222.010625 147.47375 223.02125 146.6875 224.0625 C127.20320051 245.35929247 99.23757891 250.64198737 72 255 C48.24 255 24.48 255 0 255 C0 170.85 0 86.7 0 0 Z " fill="#078CC6" transform="translate(607,400)"/>
    
    <path d="M0 0 C18.0675 -0.12375 18.0675 -0.12375 36.5 -0.25 C40.26986328 -0.28641602 44.03972656 -0.32283203 47.92382812 -0.36035156 C52.61230469 -0.37841797 52.61230469 -0.37841797 54.8236084 -0.3817749 C56.33212031 -0.3878223 57.84061586 -0.4016868 59.34899902 -0.42230225 C77.84452887 -0.66192162 96.91822066 2.7430811 110.9453125 15.8125 C124.56222033 30.43151793 125.85765097 50.39969417 125.18359375 69.40136719 C124.14816197 84.05713298 117.74320446 97.11214621 107 107 C103.81486126 109.36349467 100.55301738 111.24562849 97 113 C96.25492187 113.37769531 95.50984375 113.75539063 94.7421875 114.14453125 C81.74622587 120.02575456 67.04366886 120.44807809 53.02734375 120.29296875 C51.65466685 120.28853698 50.28198479 120.2854894 48.90930176 120.28381348 C43.91862194 120.26832704 38.92805188 120.2264465 33.9375 120.1875 C22.738125 120.125625 11.53875 120.06375 0 120 C0 80.4 0 40.8 0 0 Z " fill="#0763A4" transform="translate(259,397)"/>
  </g>
</svg>